<?xml version="1.0" encoding="UTF-8"?>
<svg width="927px" height="1760px" viewBox="0 0 927 1760" version="1.1" xmlns="http://www.w3.org/2000/svg" xmlns:xlink="http://www.w3.org/1999/xlink">
    <!-- Generator: Sketch 64 (93537) - https://sketch.com -->
    <title>Group</title>
    <desc>Created with Sketch.</desc>
    <defs>
        <linearGradient x1="50%" y1="-2.48949813e-15%" x2="50%" y2="98.9653716%" id="linearGradient-1">
            <stop stop-color="#FFFFFF" offset="0%"></stop>
            <stop stop-color="#DDECF2" offset="100%"></stop>
        </linearGradient>
        <linearGradient x1="50%" y1="-2.48949813e-15%" x2="50%" y2="100%" id="linearGradient-2">
            <stop stop-color="#FFFFFF" offset="0%"></stop>
            <stop stop-color="#A0C9DB" offset="100%"></stop>
        </linearGradient>
    </defs>
    <g id="Page-1" stroke="none" stroke-width="1" fill="none" fill-rule="evenodd">
        <g id="Artboard" transform="translate(-1891.000000, -817.000000)">
            <g id="Group" transform="translate(1890.000000, 817.000000)">
                <path d="M24,1760 L12,1760 L11.9957658,1759.9198 C15.990807,1759.97321 19.9922748,1760 24,1760 Z M928,0 L928,1760 L24,1760 L24,1760 C510.01058,1760 904,1366.01058 904,880 C904,393.98942 510.01058,0 24,0 L12.0000565,0.096 L12,0 L928,0 Z" id="Combined-Shape" fill="#FFFFFF"></path>
                <path d="M48,0 C534.01058,0 928,393.98942 928,880 C928,1366.01058 534.01058,1760 48,1760 C39.9721407,1760 31.9693884,1759.8925 23.9931041,1759.67887 L24.0068959,1759.67887 C498.918815,1746.95916 880,1357.98272 880,880 C880,402.017279 498.918815,13.0408387 24.0068959,0.321127343 L33.4475909,0.117894858 L33.4475909,0.117894858 Z" id="Combined-Shape" fill="url(#linearGradient-1)"></path>
                <path d="M24,0 C510.01058,0 904,393.98942 904,880 C904,1366.01058 510.01058,1760 24,1760 C19.9924916,1760 15.9912399,1759.97321 11.9964142,1759.9198 L0,1760 C486.01058,1760 880,1366.01058 880,880 C880,397.997204 492.481689,6.50415893 12.0044093,0.0802060294 Z" id="Combined-Shape" fill="url(#linearGradient-2)"></path>
            </g>
        </g>
    </g>
</svg>