<?xml version="1.0" encoding="UTF-8"?>
<svg width="100px" height="100px" viewBox="0 0 100 100" version="1.1" xmlns="http://www.w3.org/2000/svg" xmlns:xlink="http://www.w3.org/1999/xlink">
	<!-- Generator: Sketch 64 (93537) - https://sketch.com -->
	<title>circle-slashed</title>
	<desc>Created with Sketch.</desc>
	<g id="Welcome" stroke="none" stroke-width="1" fill="none" fill-rule="evenodd">
		<g id="Desktop-HD" transform="translate(-3393.000000, -1504.000000)" fill="#D84444">
			<g id="circle-slashed" transform="translate(3443.000000, 1554.000000) rotate(-45.000000) translate(-3443.000000, -1554.000000) translate(3393.000000, 1504.000000)">
				<path d="M50.1900062,0.648721818 C77.5509021,0.648721818 99.7312906,22.8291104 99.7312906,50.1900062 C99.7312906,77.5509021 77.5509021,99.7312906 50.1900062,99.7312906 C22.8291104,99.7312906 0.648721818,77.5509021 0.648721818,50.1900062 C0.648721818,22.8291104 22.8291104,0.648721818 50.1900062,0.648721818 Z M55.7556536,14.1729045 L55.7556536,86.207108 C73.2388545,83.5276296 86.6294633,68.42259 86.6294633,50.1900062 C86.6294633,31.9574224 73.2388545,16.8523829 55.7556536,14.1729045 Z M13.7505491,50.1900062 C13.7505491,67.5586259 25.902178,82.0890806 42.1675544,85.7434889 L42.1675544,14.6365235 C25.902178,18.2909319 13.7505491,32.8213866 13.7505491,50.1900062 Z" id="Combined-Shape"></path>
			</g>
		</g>
	</g>
</svg>
